<svg xmlns="http://www.w3.org/2000/svg" version="1.1" xmlns:xlink="http://www.w3.org/1999/xlink" xmlns:svgjs="http://svgjs.dev/svgjs" width="1000" height="1125" viewBox="0 0 1000 1125"><g transform="matrix(1,0,0,1,1.7053025658242404e-13,0)"><svg viewBox="0 0 320 360" data-background-color="#fefee2" preserveAspectRatio="xMidYMid meet" height="1125" width="1000" xmlns="http://www.w3.org/2000/svg" xmlns:xlink="http://www.w3.org/1999/xlink"><g id="tight-bounds" transform="matrix(1,0,0,1,0,0)"><svg viewBox="0 0 320 360" height="360" width="320"><g><svg></svg></g><g><svg viewBox="0 0 320 360" height="360" width="320"><g><path xmlns="http://www.w3.org/2000/svg" d="M20.961 227.22l3.726 4.658-1.863-6.056c-0.466-2.795-3.726 0.466-1.863 1.398M25.153 224.425c1.397 2.329 2.795 4.658 2.795 6.987 0 3.261 2.795 4.658 5.123 5.589-3.261-3.726-5.124-13.974-7.918-12.576M204.017 26.929c7.918 0 15.371-0.932 23.756 0.931 20.495 5.124 37.729 15.371 49.374 29.811l32.606 52.169c1.397 13.042 4.192 27.482 3.726 43.319 3.261 0 2.795-4.658 6.521-5.59-3.726 9.316-5.59 20.961-6.521 34.469-2.329-7.453 0-18.632 0.466-24.687-3.261 5.124-5.124 1.397-5.124-0.932 0.466-3.726-1.397-3.261-2.795-4.658-5.124-4.658-8.384-9.782-12.11-17.7 2.329-6.055 2.795-14.905-4.658-19.563-2.329-1.397-5.124-3.726-6.521-7.453-1.863-5.124-5.124-11.179-4.193-19.097 0.466-2.329-6.987 5.124-11.179 1.863-18.166-12.576-36.332-27.016-58.224-39.127-11.645 0-20.029-4.192-24.221-9.316-3.726-4.658-0.932-10.713 4.658-11.179 3.261 0 6.987-0.932 9.782 0.932 0.466-1.863 2.329-4.192 4.657-4.192M157.904 16.215l0.932 0.466c4.658 0.932 6.987 7.453 12.11 5.124 0 3.261 0.466 6.521-0.466 8.85-1.397 3.726-5.59 3.726-8.85 3.726-31.208-1.863-49.374 11.179-68.471 22.358-5.124 3.261-10.713 5.59-14.906 9.782-20.029 18.632-41.921 35.866-47.045 70.335l-4.192 38.195c-0.466 4.192-5.124 8.384-4.192 13.508l3.26 22.824c-3.261-3.261-5.124 0.932-4.192 2.795 0.466 1.397 2.329 6.055 5.124 1.863 3.726 6.987 7.453 20.495 12.576 26.55 15.837 18.632 36.332 35.4 53.101 52.169 4.192-0.932 7.453-0.932 8.384-3.727 1.397 2.795-1.397 5.59-3.726 6.056 7.453 4.658 15.837 8.85 27.016 9.781 14.44 0.932 27.948 3.261 40.524 6.522 6.521-1.863 13.042-2.795 20.029-3.261 2.329 0 3.726-3.726 6.521-4.658l0.466-4.658c2.795 4.192 2.329-1.397 0.466-4.192 3.261 2.795 4.192 5.124 5.589 6.987 0-1.397 3.726-6.521 3.727-0.466l0.931-6.055c1.397-0.932 1.863 5.124 3.261 0.931 1.397-4.192 4.192-0.932 6.987-2.329-0.932 1.863-0.466 5.59 2.794 3.261l3.727-3.261c2.329 5.59 6.055 3.261 7.918 2.329 20.495-13.042 40.99-28.413 60.553-43.784l-0.466 6.055 2.329-7.453c2.329 2.329 4.192 0.466 5.124-0.931 2.795-4.658 6.521-9.316 12.577-13.508-7.453 20.029-16.303 35.866-27.482 48.908l-4.658 5.59c0 3.261-0.932 7.453-4.658 7.918-1.863 0.466-5.59-0.932-8.384 1.863-1.397 1.863 3.261 5.59-0.466 2.795-3.261-2.329-6.521 0-10.248 0.932-2.795 0.932 1.863 3.726 2.795 5.589 0.932 1.863 1.863 3.726 1.398 6.056l-5.124-5.59c-6.055 3.261-9.782 9.316-14.906 13.974-2.329 1.863-1.397 5.124-1.397 7.918-3.261 0-6.987-0.932-8.85 0.932-1.397 1.863-0.932 4.658-0.932 7.453-4.658-0.466-5.124-7.453-9.315-6.056-4.192 0.932-8.85 1.397-12.577 3.727 2.795 5.59-4.658 2.329-3.726 3.26-6.987-4.192-13.042-7.453-20.495-4.658-15.837-5.124-35.4-2.795-49.84-0.931 0-2.329 0.466-4.658-0.466-5.124-0.932 2.329-3.726 1.397-3.26 1.397-8.85-6.055-17.7-9.782-27.016-14.905-8.384 0.932-16.303-3.261-18.632-5.59-6.521-6.055-13.974-2.795-20.029-4.192-13.042-3.261-17.7-16.769-19.098-26.084-0.932-4.658-4.658-6.521-6.055-6.056-6.055-19.563-15.371-37.263-22.824-55.429-1.863-4.658-1.397-9.316-1.397-14.44 2.329 0.932 4.658 0.466 4.192-2.794-2.329-15.371-7.918-27.016-13.974-38.195 3.261-15.837 3.726-34.469 11.179-48.443 6.521-12.576 18.632-19.098 27.016-29.811 2.795-3.726 2.795-8.85 5.59-12.11 9.316-9.316 18.632-19.098 28.879-27.482 4.658-3.726 10.247 0 17.234-1.397 2.329-8.384 11.645-15.837 20.495-13.508 3.726 0.932 11.179-8.85 13.508-9.782 3.726-1.397 1.863 3.726 1.863 6.987 8.85-6.987 20.961-10.713 32.14-14.906" fill="#7fc37e" fill-rule="nonzero" stroke="none" stroke-width="1" stroke-linecap="butt" stroke-linejoin="miter" stroke-miterlimit="10" stroke-dasharray="" stroke-dashoffset="0" font-family="none" font-weight="none" font-size="none" text-anchor="none" style="mix-blend-mode: normal" data-fill-palette-color="tertiary"></path></g><g transform="matrix(1,0,0,1,64,105.72518614684137)"><svg viewBox="0 0 192 148.54962770631727" height="148.54962770631727" width="192"><g><svg viewBox="0 0 192 148.54962770631727" height="148.54962770631727" width="192"><g><svg viewBox="0 0 192 148.54962770631727" height="148.54962770631727" width="192"><g transform="matrix(1,0,0,1,0,88.28352172321111)"><svg viewBox="0 0 192 60.26610598310617" height="60.26610598310617" width="192"><g><svg viewBox="0 0 192 60.26610598310617" height="60.26610598310617" width="192"><g><svg viewBox="0 0 192 34.23537769358276" height="34.23537769358276" width="192"><g transform="matrix(1,0,0,1,0,0)"><svg width="192" viewBox="5.699999809265137 -37.349998474121094 211.1300048828125 37.64999771118164" height="34.23537769358276" data-palette-color="#7fc37e"><path d="M30.85 0L16.55-16.45 9.4-9.2 9.4 0 5.7 0 5.7-35 9.4-35 9.4-13.85 29.95-35 34.2-35 19.05-19.15 35.25 0 30.85 0ZM40 0L40-26.3 43.55-26.3 43.55 0 40 0ZM41.8-32.05Q40.7-32.05 39.95-32.8 39.2-33.55 39.2-34.6L39.2-34.6Q39.2-35.6 39.95-36.35 40.7-37.1 41.8-37.1L41.8-37.1Q42.9-37.1 43.65-36.38 44.4-35.65 44.4-34.65L44.4-34.65Q44.4-33.55 43.65-32.8 42.9-32.05 41.8-32.05L41.8-32.05ZM88.8-26.3L92.05-26.3 82.1 0 78.75 0 70.45-21.55 62.15 0 58.8 0 48.9-26.3 52.3-26.3 60.55-3.95 69-26.3 72.05-26.3 80.45-3.95 88.8-26.3ZM97.39 0L97.39-26.3 100.94-26.3 100.94 0 97.39 0ZM99.19-32.05Q98.09-32.05 97.34-32.8 96.59-33.55 96.59-34.6L96.59-34.6Q96.59-35.6 97.34-36.35 98.09-37.1 99.19-37.1L99.19-37.1Q100.29-37.1 101.04-36.38 101.79-35.65 101.79-34.65L101.79-34.65Q101.79-33.55 101.04-32.8 100.29-32.05 99.19-32.05L99.19-32.05ZM134.34 0.3Q130.44 0.3 126.86-0.95 123.29-2.2 121.34-4.25L121.34-4.25 122.79-7.1Q124.69-5.2 127.84-4.03 130.99-2.85 134.34-2.85L134.34-2.85Q139.04-2.85 141.39-4.58 143.74-6.3 143.74-9.05L143.74-9.05Q143.74-11.15 142.46-12.4 141.19-13.65 139.34-14.33 137.49-15 134.19-15.8L134.19-15.8Q130.24-16.8 127.89-17.73 125.54-18.65 123.86-20.55 122.19-22.45 122.19-25.7L122.19-25.7Q122.19-28.35 123.59-30.53 124.99-32.7 127.89-34 130.79-35.3 135.09-35.3L135.09-35.3Q138.09-35.3 140.96-34.48 143.84-33.65 145.94-32.2L145.94-32.2 144.69-29.25Q142.49-30.7 139.99-31.43 137.49-32.15 135.09-32.15L135.09-32.15Q130.49-32.15 128.16-30.38 125.84-28.6 125.84-25.8L125.84-25.8Q125.84-23.7 127.11-22.43 128.39-21.15 130.31-20.48 132.24-19.8 135.49-19L135.49-19Q139.34-18.05 141.71-17.13 144.09-16.2 145.74-14.33 147.39-12.45 147.39-9.25L147.39-9.25Q147.39-6.6 145.96-4.42 144.54-2.25 141.59-0.98 138.64 0.3 134.34 0.3L134.34 0.3ZM165.44 0.25Q161.64 0.25 158.59-1.48 155.54-3.2 153.79-6.25 152.04-9.3 152.04-13.15L152.04-13.15Q152.04-17 153.79-20.05 155.54-23.1 158.59-24.8 161.64-26.5 165.44-26.5L165.44-26.5Q169.24-26.5 172.29-24.8 175.34-23.1 177.06-20.05 178.79-17 178.79-13.15L178.79-13.15Q178.79-9.3 177.06-6.25 175.34-3.2 172.29-1.48 169.24 0.25 165.44 0.25L165.44 0.25ZM165.44-2.9Q168.24-2.9 170.46-4.17 172.69-5.45 173.94-7.8 175.19-10.15 175.19-13.15L175.19-13.15Q175.19-16.15 173.94-18.5 172.69-20.85 170.46-22.13 168.24-23.4 165.44-23.4L165.44-23.4Q162.64-23.4 160.41-22.13 158.19-20.85 156.91-18.5 155.64-16.15 155.64-13.15L155.64-13.15Q155.64-10.15 156.91-7.8 158.19-5.45 160.41-4.17 162.64-2.9 165.44-2.9L165.44-2.9ZM194.73-34.35Q192.43-34.35 191.26-33.1 190.08-31.85 190.08-29.4L190.08-29.4 190.08-26.3 198.18-26.3 198.18-23.3 190.18-23.3 190.18 0 186.63 0 186.63-23.3 181.93-23.3 181.93-26.3 186.63-26.3 186.63-29.55Q186.63-33.15 188.71-35.25 190.78-37.35 194.58-37.35L194.58-37.35Q196.08-37.35 197.48-36.93 198.88-36.5 199.83-35.7L199.83-35.7 198.63-33.05Q197.08-34.35 194.73-34.35L194.73-34.35ZM215.58-4.15L216.83-1.6Q215.83-0.7 214.36-0.23 212.88 0.25 211.28 0.25L211.28 0.25Q207.58 0.25 205.58-1.75 203.58-3.75 203.58-7.4L203.58-7.4 203.58-23.3 198.88-23.3 198.88-26.3 203.58-26.3 203.58-32.05 207.13-32.05 207.13-26.3 215.13-26.3 215.13-23.3 207.13-23.3 207.13-7.6Q207.13-5.25 208.31-4.03 209.48-2.8 211.68-2.8L211.68-2.8Q212.78-2.8 213.81-3.15 214.83-3.5 215.58-4.15L215.58-4.15Z" opacity="1" transform="matrix(1,0,0,1,0,0)" fill="#7fc37e" class="undefined-text-0" data-fill-palette-color="primary" id="text-0"></path></svg></g></svg></g><g transform="matrix(1,0,0,1,0,39.23114094814113)"><svg viewBox="0 0 192 21.034965034965037" height="21.034965034965037" width="192"><g transform="matrix(1,0,0,1,0,0)"><svg width="192" viewBox="5.199999809265137 -37 343.15997314453125 37.599998474121094" height="21.034965034965037" data-palette-color="#7fc37e"><path d="M5.2 0L5.2-34.9 18.25-34.9Q22.15-34.9 24.3-32.68 26.45-30.45 26.45-26.3L26.45-26.3Q26.45-22.85 25.03-21 23.6-19.15 21.4-18.5L21.4-18.5 21.4-18.35Q24.35-17.85 26.15-15.68 27.95-13.5 27.95-9.6L27.95-9.6Q27.95-5.25 25.68-2.63 23.4 0 19.2 0L19.2 0 5.2 0ZM7.05-17.5L7.05-1.65 18.9-1.65Q20.7-1.65 22.03-2.2 23.35-2.75 24.25-3.7 25.15-4.65 25.58-5.9 26-7.15 26-8.55L26-8.55 26-10.55Q26-11.95 25.58-13.23 25.15-14.5 24.25-15.45 23.35-16.4 22.03-16.95 20.7-17.5 18.9-17.5L18.9-17.5 7.05-17.5ZM7.05-33.25L7.05-19.1 18.1-19.1Q19.7-19.1 20.9-19.6 22.1-20.1 22.9-20.93 23.7-21.75 24.1-22.85 24.5-23.95 24.5-25.2L24.5-25.2 24.5-27.2Q24.5-28.45 24.1-29.55 23.7-30.65 22.9-31.48 22.1-32.3 20.9-32.77 19.7-33.25 18.1-33.25L18.1-33.25 7.05-33.25ZM52.4 0L52.4-3.9 52.2-3.9Q51.85-3.05 51.22-2.23 50.6-1.4 49.67-0.78 48.75-0.15 47.45 0.23 46.15 0.6 44.45 0.6L44.45 0.6Q40.25 0.6 38-1.88 35.75-4.35 35.75-9.1L35.75-9.1 35.75-25.4 37.5-25.4 37.5-9.4Q37.5-5 39.4-2.98 41.3-0.95 44.85-0.95L44.85-0.95Q46.3-0.95 47.67-1.35 49.05-1.75 50.1-2.53 51.15-3.3 51.77-4.53 52.4-5.75 52.4-7.4L52.4-7.4 52.4-25.4 54.15-25.4 54.15 0 52.4 0ZM65.05-33.25L65.05-33.25Q64.25-33.25 63.9-33.63 63.55-34 63.55-34.55L63.55-34.55 63.55-35Q63.55-35.55 63.87-35.93 64.2-36.3 65-36.3L65-36.3Q65.8-36.3 66.15-35.93 66.5-35.55 66.5-35L66.5-35 66.5-34.55Q66.5-34 66.17-33.63 65.85-33.25 65.05-33.25ZM64.15 0L64.15-25.4 65.9-25.4 65.9 0 64.15 0ZM81.79 0L78.04 0Q75.89 0 75.89-2.1L75.89-2.1 75.89-37 77.64-37 77.64-1.55 81.79-1.55 81.79 0ZM105.24 0L105.24-3.95 105.09-3.95Q104.24-2.15 102.24-0.78 100.24 0.6 97.04 0.6L97.04 0.6Q92.04 0.6 89.27-2.78 86.49-6.15 86.49-12.7L86.49-12.7Q86.49-19.25 89.27-22.63 92.04-26 97.04-26L97.04-26Q100.24-26 102.24-24.65 104.24-23.3 105.09-21.45L105.09-21.45 105.24-21.45 105.24-37 106.99-37 106.99 0 105.24 0ZM97.29-1L97.29-1Q98.89-1 100.34-1.45 101.79-1.9 102.87-2.75 103.94-3.6 104.59-4.78 105.24-5.95 105.24-7.4L105.24-7.4 105.24-18.1Q105.24-19.5 104.59-20.68 103.94-21.85 102.87-22.68 101.79-23.5 100.34-23.98 98.89-24.45 97.29-24.45L97.29-24.45Q93.04-24.45 90.72-21.68 88.39-18.9 88.39-14.15L88.39-14.15 88.39-11.25Q88.39-6.5 90.72-3.75 93.04-1 97.29-1ZM137.19 0L132.04 0Q129.89 0 129.89-2.1L129.89-2.1 129.89-23.85 125.29-23.85 125.29-25.4 128.59-25.4Q129.44-25.4 129.71-25.75 129.99-26.1 129.99-26.95L129.99-26.95 129.99-32.6 131.64-32.6 131.64-25.4 137.59-25.4 137.59-23.85 131.64-23.85 131.64-1.55 137.19-1.55 137.19 0ZM153.13 0.6L153.13 0.6Q148.13 0.6 145.26-2.8 142.38-6.2 142.38-12.7L142.38-12.7Q142.38-19.25 145.26-22.63 148.13-26 153.13-26L153.13-26Q158.13-26 161.01-22.63 163.88-19.25 163.88-12.7L163.88-12.7Q163.88-6.2 161.01-2.8 158.13 0.6 153.13 0.6ZM153.13-0.95L153.13-0.95Q157.38-0.95 159.68-3.73 161.98-6.5 161.98-11.35L161.98-11.35 161.98-14.05Q161.98-18.95 159.68-21.7 157.38-24.45 153.13-24.45L153.13-24.45Q148.88-24.45 146.58-21.7 144.28-18.95 144.28-14.05L144.28-14.05 144.28-11.35Q144.28-6.5 146.58-3.73 148.88-0.95 153.13-0.95ZM190.38 0.6L190.38 0.6Q187.23 0.6 184.9-0.55 182.58-1.7 180.83-4.15L180.83-4.15 182.18-5.15Q183.88-2.9 185.8-1.93 187.73-0.95 190.43-0.95L190.43-0.95Q193.83-0.95 195.58-2.35 197.33-3.75 197.33-6.4L197.33-6.4Q197.33-8.95 195.85-10.2 194.38-11.45 191.33-11.95L191.33-11.95 189.18-12.3Q187.48-12.55 186.1-13.05 184.73-13.55 183.75-14.38 182.78-15.2 182.25-16.4 181.73-17.6 181.73-19.3L181.73-19.3Q181.73-20.95 182.35-22.2 182.98-23.45 184.1-24.3 185.23-25.15 186.75-25.58 188.28-26 190.03-26L190.03-26Q193.23-26 195.23-24.88 197.23-23.75 198.53-22.25L198.53-22.25 197.28-21.1Q196.73-21.75 196.05-22.35 195.38-22.95 194.53-23.43 193.68-23.9 192.55-24.18 191.43-24.45 189.98-24.45L189.98-24.45Q186.98-24.45 185.2-23.15 183.43-21.85 183.43-19.35L183.43-19.35Q183.43-16.8 184.93-15.63 186.43-14.45 189.48-13.95L189.48-13.95 191.63-13.6Q195.18-13.05 197.1-11.43 199.03-9.8 199.03-6.55L199.03-6.55Q199.03-3.15 196.73-1.28 194.43 0.6 190.38 0.6ZM223.13 0L223.13-3.9 222.93-3.9Q222.58-3.05 221.95-2.23 221.33-1.4 220.4-0.78 219.48-0.15 218.18 0.23 216.88 0.6 215.18 0.6L215.18 0.6Q210.98 0.6 208.73-1.88 206.48-4.35 206.48-9.1L206.48-9.1 206.48-25.4 208.23-25.4 208.23-9.4Q208.23-5 210.13-2.98 212.03-0.95 215.58-0.95L215.58-0.95Q217.03-0.95 218.4-1.35 219.78-1.75 220.83-2.53 221.88-3.3 222.5-4.53 223.13-5.75 223.13-7.4L223.13-7.4 223.13-25.4 224.88-25.4 224.88 0 223.13 0ZM243.47 0.6L243.47 0.6Q238.37 0.6 235.55-2.8 232.72-6.2 232.72-12.7L232.72-12.7Q232.72-19.25 235.55-22.63 238.37-26 243.47-26L243.47-26Q246.67-26 248.77-24.58 250.87-23.15 252.02-20.75L252.02-20.75 250.57-20Q249.47-22.15 247.8-23.3 246.12-24.45 243.47-24.45L243.47-24.45Q239.17-24.45 236.9-21.65 234.62-18.85 234.62-14.15L234.62-14.15 234.62-11.25Q234.62-6.55 236.9-3.75 239.17-0.95 243.47-0.95L243.47-0.95Q246.32-0.95 248.15-2.13 249.97-3.3 251.12-5.4L251.12-5.4 252.42-4.5Q251.17-2.2 249.02-0.8 246.87 0.6 243.47 0.6ZM267.57 0.6L267.57 0.6Q262.47 0.6 259.65-2.8 256.82-6.2 256.82-12.7L256.82-12.7Q256.82-19.25 259.65-22.63 262.47-26 267.57-26L267.57-26Q270.77-26 272.87-24.58 274.97-23.15 276.12-20.75L276.12-20.75 274.67-20Q273.57-22.15 271.9-23.3 270.22-24.45 267.57-24.45L267.57-24.45Q263.27-24.45 261-21.65 258.72-18.85 258.72-14.15L258.72-14.15 258.72-11.25Q258.72-6.55 261-3.75 263.27-0.95 267.57-0.95L267.57-0.95Q270.42-0.95 272.25-2.13 274.07-3.3 275.22-5.4L275.22-5.4 276.52-4.5Q275.27-2.2 273.12-0.8 270.97 0.6 267.57 0.6ZM291.82 0.6L291.82 0.6Q286.77 0.6 283.84-2.8 280.92-6.2 280.92-12.7L280.92-12.7Q280.92-19.15 283.77-22.58 286.62-26 291.62-26L291.62-26Q293.97-26 295.89-25.1 297.82-24.2 299.19-22.55 300.57-20.9 301.32-18.57 302.07-16.25 302.07-13.4L302.07-13.4 302.07-12.6 282.77-12.6 282.77-11.25Q282.77-8.9 283.37-7 283.97-5.1 285.14-3.75 286.32-2.4 287.99-1.68 289.67-0.95 291.82-0.95L291.82-0.95Q297.87-0.95 300.17-6.75L300.17-6.75 301.52-6Q300.37-3 297.92-1.2 295.47 0.6 291.82 0.6ZM291.62-24.45L291.62-24.45Q289.52-24.45 287.89-23.73 286.27-23 285.12-21.65 283.97-20.3 283.37-18.4 282.77-16.5 282.77-14.2L282.77-14.2 282.77-14 300.17-14 300.17-14.3Q300.17-16.6 299.54-18.48 298.92-20.35 297.79-21.68 296.67-23 295.09-23.73 293.52-24.45 291.62-24.45ZM316.77 0.6L316.77 0.6Q313.62 0.6 311.29-0.55 308.97-1.7 307.22-4.15L307.22-4.15 308.57-5.15Q310.27-2.9 312.19-1.93 314.12-0.95 316.82-0.95L316.82-0.95Q320.22-0.95 321.97-2.35 323.72-3.75 323.72-6.4L323.72-6.4Q323.72-8.95 322.24-10.2 320.77-11.45 317.72-11.95L317.72-11.95 315.57-12.3Q313.87-12.55 312.49-13.05 311.12-13.55 310.14-14.38 309.17-15.2 308.64-16.4 308.12-17.6 308.12-19.3L308.12-19.3Q308.12-20.95 308.74-22.2 309.37-23.45 310.49-24.3 311.62-25.15 313.14-25.58 314.67-26 316.42-26L316.42-26Q319.62-26 321.62-24.88 323.62-23.75 324.92-22.25L324.92-22.25 323.67-21.1Q323.12-21.75 322.44-22.35 321.77-22.95 320.92-23.43 320.07-23.9 318.94-24.18 317.82-24.45 316.37-24.45L316.37-24.45Q313.37-24.45 311.59-23.15 309.82-21.85 309.82-19.35L309.82-19.35Q309.82-16.8 311.32-15.63 312.82-14.45 315.87-13.95L315.87-13.95 318.02-13.6Q321.57-13.05 323.49-11.43 325.42-9.8 325.42-6.55L325.42-6.55Q325.42-3.15 323.12-1.28 320.82 0.6 316.77 0.6ZM339.71 0.6L339.71 0.6Q336.56 0.6 334.24-0.55 331.91-1.7 330.16-4.15L330.16-4.15 331.51-5.15Q333.21-2.9 335.14-1.93 337.06-0.95 339.76-0.95L339.76-0.95Q343.16-0.95 344.91-2.35 346.66-3.75 346.66-6.4L346.66-6.4Q346.66-8.95 345.19-10.2 343.71-11.45 340.66-11.95L340.66-11.95 338.51-12.3Q336.81-12.55 335.44-13.05 334.06-13.55 333.09-14.38 332.11-15.2 331.59-16.4 331.06-17.6 331.06-19.3L331.06-19.3Q331.06-20.95 331.69-22.2 332.31-23.45 333.44-24.3 334.56-25.15 336.09-25.58 337.61-26 339.36-26L339.36-26Q342.56-26 344.56-24.88 346.56-23.75 347.86-22.25L347.86-22.25 346.61-21.1Q346.06-21.75 345.39-22.35 344.71-22.95 343.86-23.43 343.01-23.9 341.89-24.18 340.76-24.45 339.31-24.45L339.31-24.45Q336.31-24.45 334.54-23.15 332.76-21.85 332.76-19.35L332.76-19.35Q332.76-16.8 334.26-15.63 335.76-14.45 338.81-13.95L338.81-13.95 340.96-13.6Q344.51-13.05 346.44-11.43 348.36-9.8 348.36-6.55L348.36-6.55Q348.36-3.15 346.06-1.28 343.76 0.6 339.71 0.6Z" opacity="1" transform="matrix(1,0,0,1,0,0)" fill="#7fc37e" class="undefined-text-1" data-fill-palette-color="secondary" id="text-1"></path></svg></g></svg></g></svg></g></svg></g><g transform="matrix(1,0,0,1,60.46366256628019,0)"><svg viewBox="0 0 71.07267486743962 83.28775846865274" height="83.28775846865274" width="71.07267486743962"><g><svg xmlns="http://www.w3.org/2000/svg" xmlns:xlink="http://www.w3.org/1999/xlink" version="1.1" x="0" y="0" viewBox="283 126.30000305175781 236.801513671875 277.5" enable-background="new 0 0 841.9 595.3" xml:space="preserve" height="83.28775846865274" width="71.07267486743962" class="icon-icon-0" data-fill-palette-color="accent" id="icon-0"><path d="M508.6 297.3c-2.3 0-4.5 0.7-6.3 1.9L410 246.7c0.2-0.8 0.3-1.7 0.3-2.6 0-4.7-2.9-8.7-7-10.4v-41.4c1.6-1.3 2.7-3.2 2.7-5.4 0-2.2-1.1-4.2-2.7-5.4v-33.3c4.6-1.4 7.9-5.6 7.9-10.7 0-6.2-5-11.2-11.2-11.2-6.2 0-11.2 5-11.2 11.2 0 0.3 0.1 0.7 0.1 1l-22.5 10.8c-0.9-0.5-1.9-0.7-3-0.7-3.3 0-6 2.3-6.7 5.4L302 180.1c-2-2-4.8-3.2-7.8-3.2-6.2 0-11.2 5-11.2 11.2 0 5.1 3.4 9.3 8 10.7v45.7c-1.5 1.3-2.4 3.1-2.4 5.2 0 2.1 0.9 3.9 2.4 5.2V295c-3.5 1.9-6 5.6-6 9.9 0 6.2 5 11.2 11.2 11.2 1.3 0 2.5-0.3 3.7-0.7l92.7 74.9c-0.2 0.8-0.3 1.5-0.3 2.3 0 6.2 5 11.2 11.2 11.2 6.2 0 11.2-5 11.2-11.2 0-0.8-0.1-1.5-0.2-2.3l38.9-30.6c0.8 0.3 1.6 0.5 2.5 0.5 3.8 0 6.9-3.1 6.9-6.9 0-0.3-0.1-0.6-0.1-0.9l42.4-33.4c1.1 0.4 2.3 0.6 3.5 0.6 6.2 0 11.2-5 11.2-11.2C519.9 302.3 514.8 297.3 508.6 297.3zM403.6 381.4c-2.5 0-4.8 0.9-6.7 2.3L306 310.3c0.9-1.6 1.5-3.5 1.5-5.4 0-0.8-0.1-1.5-0.2-2.2l56-32.8 33.7 72.9c-0.5 1-0.9 2.1-0.9 3.3 0 3.8 3.1 6.9 6.9 6.9 2.6 0 4.8-1.4 6-3.5l38.8 4.9-37.5 29.5C408.5 382.3 406.1 381.4 403.6 381.4zM305.4 188.2c0-0.3-0.1-0.6-0.1-0.9l54.3-26.1c1.1 0.7 2.4 1.1 3.8 1.1 1.2 0 2.2-0.3 3.2-0.8l26.5 22.2c-0.5 1-0.8 2.1-0.8 3.2 0 2 0.8 3.7 2.1 5l-24.2 61.6c-3.2 0.6-5.7 3.3-5.7 6.7l0 0-16.4-35.4c1.2-1.2 2-2.9 2-4.8 0-3.8-3.1-6.9-6.9-6.9s-6.9 3.1-6.9 6.9c0 0.8 0.2 1.5 0.4 2.2L300.5 245c-0.5-0.5-1.1-1-1.7-1.3v-45.4C302.7 196.6 305.4 192.7 305.4 188.2zM395.5 147.7v31.2l-25.6-21.4c0.1-0.4 0.2-0.9 0.3-1.4l22-10.6C393.2 146.4 394.3 147.1 395.5 147.7zM387.9 244.1c0 0.7 0.1 1.5 0.2 2.2l-12.4 7.2 19.8-50.3v30.3C391.1 235.1 387.9 239.2 387.9 244.1zM302.3 250l37.8-24.1c0.9 0.5 2 0.8 3.1 0.8 0 0 0.1 0 0.1 0l16.7 36L303 296c-1.3-1-2.7-1.7-4.3-2.1v-38.2C300.8 254.6 302.2 252.5 302.3 250zM455.9 346.5c-2.3 0-4.3 1.1-5.5 2.8l-40.8-5.1c-0.8-2.9-3.4-5.1-6.6-5.1-0.6 0-1.2 0.1-1.8 0.3l-33.4-72.2 1.1-0.6c0.8 0.3 1.6 0.5 2.5 0.5 3.5 0 6.3-2.6 6.8-5.9l14.1-8.2c1.9 1.5 4.3 2.4 6.9 2.4 2.4 0 4.7-0.8 6.5-2.1l92.2 52.4c-0.2 0.9-0.4 1.9-0.4 2.9 0 2 0.6 3.9 1.5 5.5l-41.5 32.6C457 346.6 456.5 346.5 455.9 346.5z" fill="#7fc37e" data-fill-palette-color="accent"></path></svg></g></svg></g><g></g></svg></g></svg></g></svg></g></svg></g><defs></defs></svg><rect width="320" height="360" fill="none" stroke="none" visibility="hidden"></rect></g></svg></g></svg>