<svg xmlns="http://www.w3.org/2000/svg" version="1.1" xmlns:xlink="http://www.w3.org/1999/xlink" xmlns:svgjs="http://svgjs.dev/svgjs" width="1000" height="1000" viewBox="0 0 1000 1000"><rect width="1000" height="1000" fill="#ffffff"></rect><g transform="matrix(0.7,0,0,0.7,149.57576714334868,421.19830740624207)"><svg viewBox="0 0 396 89" data-background-color="#ffffff" preserveAspectRatio="xMidYMid meet" height="224" width="1000" xmlns="http://www.w3.org/2000/svg" xmlns:xlink="http://www.w3.org/1999/xlink"><g id="tight-bounds" transform="matrix(1,0,0,1,0.23999468412921487,0.2280038554310977)"><svg viewBox="0 0 395.52 88.54399460857107" height="88.54399460857107" width="395.52"><g><svg viewBox="0 0 395.52 88.54399460857107" height="88.54399460857107" width="395.52"><g><svg viewBox="0 0 395.52 88.54399460857107" height="88.54399460857107" width="395.52"><g><svg viewBox="0 0 395.52 88.54399460857107" height="88.54399460857107" width="395.52"><g><svg viewBox="0 0 395.52 49.66808350926577" height="49.66808350926577" width="395.52"><g transform="matrix(1,0,0,1,0,0)"><svg width="395.52" viewBox="5.420000076293945 -38.66999816894531 312.2099914550781 39.209999084472656" height="49.66808350926577" data-palette-color="#ed1703"><g class="undefined-text-0" data-fill-palette-color="primary" id="text-0"><path d="M5.42 0L5.42-38.16 13.16-38.16 13.16-18.41 33.3-38.16 43.21-38.16 24.41-19.95 43.21 0 32.91 0 18.85-14.55 13.16-9.06 13.16 0 5.42 0ZM46.04 0L46.04-38.16 53.83-38.16 53.83 0 46.04 0ZM75.61 0L58.76-38.16 67.21-38.16 77.56-13.53 79.95-7.57 81.83-13.53 85.64-22.51 78.78-38.16 86.74-38.16 89.55-30.71 92.16-38.16 100.12-38.16 93.26-22.51 97.14-13.33 99.48-7.57 101.29-13.43 111.69-38.16 120.14-38.16 103.29 0 95.62 0 92.23-7.57 89.47-14.92 86.71-7.57 83.27 0 75.61 0ZM125.07 0L125.07-38.16 132.85-38.16 132.85 0 125.07 0ZM140.37-5.08L144.5-11.35Q146.57-10.18 148.71-9.24 150.84-8.3 153.14-7.65 155.43-7.01 157.96-6.67 160.49-6.32 163.34-6.32L163.34-6.32Q166.79-6.32 169.2-6.77 171.62-7.23 173.15-8.02 174.67-8.81 175.37-9.91 176.06-11.01 176.06-12.3L176.06-12.3Q176.06-14.38 174.33-15.59 172.6-16.8 168.98-16.8L168.98-16.8Q167.4-16.8 165.64-16.59 163.88-16.38 162.09-16.14 160.29-15.89 158.55-15.69 156.8-15.48 155.26-15.48L155.26-15.48Q152.7-15.48 150.34-16.14 147.99-16.8 146.17-18.12 144.35-19.43 143.28-21.41 142.2-23.39 142.2-26.03L142.2-26.03Q142.2-27.59 142.63-29.13 143.06-30.66 144-32.07 144.94-33.47 146.43-34.68 147.91-35.89 150.03-36.77 152.14-37.65 154.91-38.15 157.68-38.65 161.22-38.65L161.22-38.65Q163.78-38.65 166.37-38.37 168.96-38.09 171.41-37.57 173.87-37.06 176.14-36.34 178.41-35.62 180.36-34.74L180.36-34.74 176.97-28.49Q175.36-29.2 173.5-29.8 171.65-30.4 169.62-30.83 167.59-31.27 165.43-31.53 163.27-31.79 161.03-31.79L161.03-31.79Q157.83-31.79 155.76-31.32 153.7-30.86 152.48-30.14 151.26-29.42 150.78-28.53 150.31-27.64 150.31-26.76L150.31-26.76Q150.31-25.05 151.85-23.96 153.38-22.88 156.53-22.88L156.53-22.88Q157.8-22.88 159.45-23.06 161.1-23.24 162.92-23.46 164.74-23.68 166.63-23.86 168.52-24.05 170.3-24.05L170.3-24.05Q173.67-24.05 176.27-23.29 178.87-22.53 180.63-21.13 182.39-19.73 183.29-17.74 184.19-15.75 184.19-13.28L184.19-13.28Q184.19-9.99 182.67-7.41 181.14-4.83 178.32-3.06 175.5-1.29 171.52-0.38 167.54 0.54 162.66 0.54L162.66 0.54Q159.44 0.54 156.36 0.13 153.29-0.27 150.47-1.01 147.65-1.76 145.09-2.8 142.54-3.83 140.37-5.08L140.37-5.08ZM190.47-19.19L190.47-19.19Q190.47-23.51 192.05-27.1 193.64-30.69 196.51-33.26 199.38-35.84 203.39-37.26 207.41-38.67 212.29-38.67L212.29-38.67Q217.15-38.67 221.18-37.26 225.21-35.84 228.08-33.26 230.94-30.69 232.53-27.1 234.12-23.51 234.12-19.19L234.12-19.19Q234.12-14.84 232.53-11.22 230.94-7.59 228.08-4.98 225.21-2.37 221.18-0.92 217.15 0.54 212.29 0.54L212.29 0.54Q207.41 0.54 203.39-0.92 199.38-2.37 196.51-4.98 193.64-7.59 192.05-11.22 190.47-14.84 190.47-19.19ZM198.21-19.19L198.21-19.19Q198.21-16.24 199.27-13.87 200.33-11.5 202.22-9.83 204.11-8.15 206.69-7.25 209.26-6.35 212.29-6.35L212.29-6.35Q215.32-6.35 217.9-7.25 220.47-8.15 222.35-9.83 224.23-11.5 225.3-13.87 226.38-16.24 226.38-19.19L226.38-19.19Q226.38-22.14 225.3-24.49 224.23-26.83 222.35-28.45 220.47-30.08 217.9-30.93 215.32-31.79 212.29-31.79L212.29-31.79Q209.26-31.79 206.69-30.93 204.11-30.08 202.22-28.45 200.33-26.83 199.27-24.49 198.21-22.14 198.21-19.19ZM242.71 0L242.71-38.16 276.84-38.16 276.84-31.37 250.45-31.37 250.45-21.39 272.86-21.39 272.86-15.01 250.45-15.01 250.45 0 242.71 0ZM295.81 0L295.81-31.37 281.72-31.37 281.72-38.16 317.63-38.16 317.63-31.37 303.55-31.37 303.55 0 295.81 0Z" fill="#ed1703" data-fill-palette-color="primary"></path></g></svg></g></svg></g><g transform="matrix(1,0,0,1,163.310208,61.393525991799194)"><svg viewBox="0 0 232.209792 27.150468616771864" height="27.150468616771864" width="232.209792"><g transform="matrix(1,0,0,1,0,0)"><svg width="232.209792" viewBox="3.1500000953674316 -38.25 332.6600036621094 38.900001525878906" height="27.150468616771864" data-palette-color="#e85157"><path d="M27.1-28L27.1-28Q27.1-26 26.28-24.28 25.45-22.55 23.93-21.38 22.4-20.2 20.4-19.9L20.4-19.9Q22.9-19.5 24.78-18.15 26.65-16.8 27.73-14.75 28.8-12.7 28.8-10.2L28.8-10.2Q28.8-7.1 27.63-5.13 26.45-3.15 24.45-2.02 22.45-0.9 20-0.45 17.55 0 15 0L15 0 3.85 0 3.85-33.3Q3.85-33.35 3.68-34.08 3.5-34.8 3.35-35.58 3.2-36.35 3.15-36.5L3.15-36.5 15.7-36.5Q17.85-36.5 19.88-36.13 21.9-35.75 23.55-34.8 25.2-33.85 26.15-32.2 27.1-30.55 27.1-28ZM21.25-27.55L21.25-27.55Q21.25-29.35 20.48-30.43 19.7-31.5 18.38-31.95 17.05-32.4 15.4-32.4L15.4-32.4 9.45-32.4 9.45-21.75 14.75-21.75Q17.65-21.75 19.45-23.13 21.25-24.5 21.25-27.55ZM22.85-10.95L22.85-10.95Q22.85-13.35 21.6-14.85 20.35-16.35 18.4-17 16.45-17.65 14.3-17.65L14.3-17.65 9.45-17.65 9.45-4.1 15-4.1Q17.3-4.1 19.07-4.75 20.85-5.4 21.85-6.93 22.85-8.45 22.85-10.95ZM33.8-24.85L39.4-24.85 39.4-9.35Q39.4-8.05 39.62-6.68 39.85-5.3 40.65-4.4 41.45-3.5 43.15-3.5L43.15-3.5Q44.8-3.5 46.2-4.2 47.6-4.9 48.45-6.2 49.3-7.5 49.3-9.2L49.3-9.2 49.3-22Q49.3-22.05 49.15-22.7 49-23.35 48.87-24.05 48.75-24.75 48.7-24.85L48.7-24.85 54.3-24.85 54.3-5.5Q54.3-4.4 54.65-3.9 55-3.4 55.75-3.4L55.75-3.4Q56.45-3.4 57.65-3.85L57.65-3.85 58.6-0.85Q57.55-0.3 56.27 0.08 55 0.45 53.8 0.45L53.8 0.45Q52.4 0.45 51.27-0.3 50.15-1.05 49.8-2.95L49.8-2.95Q48.3-1.4 46.25-0.38 44.2 0.65 41.95 0.65L41.95 0.65Q39.15 0.65 37.5-0.48 35.85-1.6 35.12-3.58 34.4-5.55 34.4-8.15L34.4-8.15 34.4-22 33.8-24.85ZM67.95-33.5L67.95-33.5Q67.95-32.1 67-31.1 66.05-30.1 64.59-30.1L64.59-30.1Q63.2-30.1 62.22-31.1 61.25-32.1 61.25-33.5L61.25-33.5Q61.25-34.9 62.22-35.88 63.2-36.85 64.59-36.85L64.59-36.85Q66-36.85 66.97-35.88 67.95-34.9 67.95-33.5ZM61.55-24.85L67.09-24.85 67.09 0 62.15 0 62.15-22 61.55-24.85ZM74.04-38.25L79.64-38.25 79.64 0 74.64 0 74.64-35.45 74.04-38.25ZM96.64-25.4L96.64-25.4Q98.19-25.4 99.84-24.93 101.49-24.45 102.64-23.45L102.64-23.45Q102.59-24.25 102.59-24.9 102.59-25.55 102.59-26.3L102.59-26.3 102.59-35.4 101.84-38.25 107.49-38.25 107.49-7.15Q107.49-6.1 107.62-4.8 107.74-3.5 108.07-2.27 108.39-1.05 108.89-0.1L108.89-0.1 103.79 0.45Q103.49-0.35 103.27-1.15 103.04-1.95 102.94-2.8L102.94-2.8Q101.74-1.15 99.77-0.25 97.79 0.65 95.79 0.65L95.79 0.65Q93.14 0.65 91.19-0.45 89.24-1.55 87.94-3.43 86.64-5.3 85.99-7.58 85.34-9.85 85.34-12.2L85.34-12.2Q85.34-15.7 86.59-18.73 87.84-21.75 90.34-23.58 92.84-25.4 96.64-25.4ZM96.94-21.65L96.94-21.65Q95.09-21.65 93.89-20.8 92.69-19.95 91.97-18.57 91.24-17.2 90.94-15.6 90.64-14 90.64-12.5L90.64-12.5Q90.64-10.95 90.97-9.35 91.29-7.75 92.07-6.38 92.84-5 94.12-4.17 95.39-3.35 97.24-3.35L97.24-3.35Q98.79-3.35 100.22-4.28 101.64-5.2 102.59-6.35L102.59-6.35 102.59-14.65Q102.59-16.5 102.04-18.1 101.49-19.7 100.24-20.68 98.99-21.65 96.94-21.65ZM129.69-32L133.24-32Q132.89-30.3 132.64-28.45 132.39-26.6 132.29-24.85L132.29-24.85 138.59-24.85 137.74-21.35 132.29-21.35 132.29-6.35Q132.29-5.6 132.46-4.83 132.64-4.05 133.16-3.6 133.69-3.15 134.74-3.15L134.74-3.15Q135.54-3.15 136.34-3.3 137.14-3.45 137.89-3.65L137.89-3.65 138.59-0.45Q137.34-0.05 136.01 0.25 134.69 0.55 133.24 0.55L133.24 0.55Q130.04 0.55 128.69-1.07 127.34-2.7 127.34-5.85L127.34-5.85 127.34-21.35 123.44-21.35 123.44-24.2Q125.49-24.25 126.74-25.53 127.99-26.8 128.69-28.6 129.39-30.4 129.69-32L129.69-32ZM151.98 0.65L151.98 0.65Q148.28 0.65 145.73-1.15 143.18-2.95 141.86-5.88 140.53-8.8 140.53-12.25L140.53-12.25Q140.53-15.75 141.93-18.75 143.33-21.75 145.98-23.6 148.63-25.45 152.28-25.45L152.28-25.45Q156.03-25.45 158.58-23.7 161.13-21.95 162.43-19 163.73-16.05 163.73-12.55L163.73-12.55Q163.73-9.1 162.36-6.08 160.98-3.05 158.36-1.2 155.73 0.65 151.98 0.65ZM152.03-2.9L152.03-2.9Q153.88-2.9 155.13-3.8 156.38-4.7 157.11-6.15 157.83-7.6 158.13-9.25 158.43-10.9 158.43-12.4L158.43-12.4Q158.43-13.95 158.16-15.6 157.88-17.25 157.23-18.7 156.58-20.15 155.36-21.03 154.13-21.9 152.23-21.9L152.23-21.9Q150.38-21.9 149.16-21 147.93-20.1 147.21-18.65 146.48-17.2 146.18-15.53 145.88-13.85 145.88-12.4L145.88-12.4Q145.88-10.95 146.16-9.3 146.43-7.65 147.13-6.18 147.83-4.7 149.03-3.8 150.23-2.9 152.03-2.9ZM189.18-25.45L189.18-25.45Q190.93-25.45 192.75-25.05 194.58-24.65 196.03-23.8L196.03-23.8 194.28-20.2Q193.23-21.05 191.9-21.5 190.58-21.95 189.28-21.95L189.28-21.95Q187.68-21.95 186.43-21.2 185.18-20.45 185.18-18.85L185.18-18.85Q185.18-17.25 186.28-16.45 187.38-15.65 188.93-14.95L188.93-14.95Q190.18-14.4 191.45-13.8 192.73-13.2 193.83-12.35 194.93-11.5 195.63-10.25 196.33-9 196.33-7.1L196.33-7.1Q196.33-4.5 195.03-2.78 193.73-1.05 191.65-0.2 189.58 0.65 187.18 0.65L187.18 0.65Q185.18 0.65 183.05 0.1 180.93-0.45 179.23-1.45L179.23-1.45 181.13-4.95Q182.38-4.1 183.85-3.53 185.33-2.95 186.78-2.95L186.78-2.95Q188.48-2.95 189.78-3.8 191.08-4.65 191.08-6.35L191.08-6.35Q191.08-7.55 190.4-8.33 189.73-9.1 188.63-9.68 187.53-10.25 186.28-10.75L186.28-10.75Q184.78-11.45 183.33-12.28 181.88-13.1 180.93-14.45 179.98-15.8 179.98-18L179.98-18Q179.98-20.5 181.3-22.15 182.63-23.8 184.75-24.63 186.88-25.45 189.18-25.45ZM201.28-24.85L206.88-24.85 206.88-9.35Q206.88-8.05 207.1-6.68 207.33-5.3 208.13-4.4 208.93-3.5 210.63-3.5L210.63-3.5Q212.28-3.5 213.68-4.2 215.08-4.9 215.93-6.2 216.78-7.5 216.78-9.2L216.78-9.2 216.78-22Q216.78-22.05 216.63-22.7 216.48-23.35 216.35-24.05 216.23-24.75 216.18-24.85L216.18-24.85 221.78-24.85 221.78-5.5Q221.78-4.4 222.13-3.9 222.48-3.4 223.23-3.4L223.23-3.4Q223.93-3.4 225.13-3.85L225.13-3.85 226.08-0.85Q225.03-0.3 223.75 0.08 222.48 0.45 221.28 0.45L221.28 0.45Q219.88 0.45 218.75-0.3 217.63-1.05 217.28-2.95L217.28-2.95Q215.78-1.4 213.73-0.38 211.68 0.65 209.43 0.65L209.43 0.65Q206.63 0.65 204.98-0.48 203.33-1.6 202.6-3.58 201.88-5.55 201.88-8.15L201.88-8.15 201.88-22 201.28-24.85ZM239.72-25.45L239.72-25.45Q241.57-25.45 243.57-24.83 245.57-24.2 247.27-23L247.27-23 244.72-19.7Q243.42-20.75 242.15-21.28 240.87-21.8 239.47-21.8L239.47-21.8Q237.92-21.8 236.72-21.03 235.52-20.25 234.7-18.95 233.87-17.65 233.45-15.98 233.02-14.3 233.02-12.5L233.02-12.5Q233.02-8 234.97-5.55 236.92-3.1 240.12-3.1L240.12-3.1Q241.52-3.1 242.87-3.55 244.22-4 245.77-4.85L245.77-4.85 247.17-1.8Q245.17-0.6 243.32 0.03 241.47 0.65 239.12 0.65L239.12 0.65Q235.62 0.65 233.05-1 230.47-2.65 229.05-5.63 227.62-8.6 227.62-12.55L227.62-12.55Q227.62-16.45 229.22-19.35 230.82-22.25 233.55-23.85 236.27-25.45 239.72-25.45ZM262.22-25.45L262.22-25.45Q264.07-25.45 266.07-24.83 268.07-24.2 269.77-23L269.77-23 267.22-19.7Q265.92-20.75 264.65-21.28 263.37-21.8 261.97-21.8L261.97-21.8Q260.42-21.8 259.22-21.03 258.02-20.25 257.2-18.95 256.37-17.65 255.95-15.98 255.52-14.3 255.52-12.5L255.52-12.5Q255.52-8 257.47-5.55 259.42-3.1 262.62-3.1L262.62-3.1Q264.02-3.1 265.37-3.55 266.72-4 268.27-4.85L268.27-4.85 269.67-1.8Q267.67-0.6 265.82 0.03 263.97 0.65 261.62 0.65L261.62 0.65Q258.12 0.65 255.55-1 252.97-2.65 251.55-5.63 250.12-8.6 250.12-12.55L250.12-12.55Q250.12-16.45 251.72-19.35 253.32-22.25 256.05-23.85 258.77-25.45 262.22-25.45ZM284.22-25.5L284.22-25.5Q287.42-25.5 289.54-24.15 291.67-22.8 292.69-20.55 293.72-18.3 293.72-15.5L293.72-15.5Q293.72-14.75 293.64-13.95 293.57-13.15 293.42-12.35L293.42-12.35 277.87-12.35Q277.87-7.9 279.87-5.5 281.87-3.1 285.22-3.1L285.22-3.1Q286.67-3.1 288.27-3.58 289.87-4.05 291.62-5L291.62-5 293.22-2.15Q291.47-0.75 289.12-0.08 286.77 0.6 284.57 0.6L284.57 0.6Q280.67 0.6 278.02-1.15 275.37-2.9 273.99-5.8 272.62-8.7 272.62-12.2L272.62-12.2Q272.62-14.75 273.37-17.13 274.12-19.5 275.59-21.4 277.07-23.3 279.22-24.4 281.37-25.5 284.22-25.5ZM283.87-21.95L283.87-21.95Q282.22-21.95 280.99-21.03 279.77-20.1 279.04-18.68 278.32-17.25 278.12-15.8L278.12-15.8 288.57-15.8Q288.72-17.6 288.19-19 287.67-20.4 286.57-21.18 285.47-21.95 283.87-21.95ZM307.62-25.45L307.62-25.45Q309.37-25.45 311.19-25.05 313.02-24.65 314.47-23.8L314.47-23.8 312.72-20.2Q311.67-21.05 310.34-21.5 309.02-21.95 307.72-21.95L307.72-21.95Q306.12-21.95 304.87-21.2 303.62-20.45 303.62-18.85L303.62-18.85Q303.62-17.25 304.72-16.45 305.82-15.65 307.37-14.95L307.37-14.95Q308.62-14.4 309.89-13.8 311.17-13.2 312.27-12.35 313.37-11.5 314.07-10.25 314.77-9 314.77-7.1L314.77-7.1Q314.77-4.5 313.47-2.78 312.17-1.05 310.09-0.2 308.02 0.65 305.62 0.65L305.62 0.65Q303.62 0.65 301.49 0.1 299.37-0.45 297.67-1.45L297.67-1.45 299.57-4.95Q300.82-4.1 302.29-3.53 303.77-2.95 305.22-2.95L305.22-2.95Q306.92-2.95 308.22-3.8 309.52-4.65 309.52-6.35L309.52-6.35Q309.52-7.55 308.84-8.33 308.17-9.1 307.07-9.68 305.97-10.25 304.72-10.75L304.72-10.75Q303.22-11.45 301.77-12.28 300.32-13.1 299.37-14.45 298.42-15.8 298.42-18L298.42-18Q298.42-20.5 299.74-22.15 301.07-23.8 303.19-24.63 305.32-25.45 307.62-25.45ZM328.66-25.45L328.66-25.45Q330.41-25.45 332.24-25.05 334.06-24.65 335.51-23.8L335.51-23.8 333.76-20.2Q332.71-21.05 331.39-21.5 330.06-21.95 328.76-21.95L328.76-21.95Q327.16-21.95 325.91-21.2 324.66-20.45 324.66-18.85L324.66-18.85Q324.66-17.25 325.76-16.45 326.86-15.65 328.41-14.95L328.41-14.95Q329.66-14.4 330.94-13.8 332.21-13.2 333.31-12.35 334.41-11.5 335.11-10.25 335.81-9 335.81-7.1L335.81-7.1Q335.81-4.5 334.51-2.78 333.21-1.05 331.14-0.2 329.06 0.65 326.66 0.65L326.66 0.65Q324.66 0.65 322.54 0.1 320.41-0.45 318.71-1.45L318.71-1.45 320.61-4.95Q321.86-4.1 323.34-3.53 324.81-2.95 326.26-2.95L326.26-2.95Q327.96-2.95 329.26-3.8 330.56-4.65 330.56-6.35L330.56-6.35Q330.56-7.55 329.89-8.33 329.21-9.1 328.11-9.68 327.01-10.25 325.76-10.75L325.76-10.75Q324.26-11.45 322.81-12.28 321.36-13.1 320.41-14.45 319.46-15.8 319.46-18L319.46-18Q319.46-20.5 320.79-22.15 322.11-23.8 324.24-24.63 326.36-25.45 328.66-25.45Z" opacity="1" transform="matrix(1,0,0,1,0,0)" fill="#e85157" class="undefined-text-1" data-fill-palette-color="secondary" id="text-1"></path></svg></g></svg></g></svg></g></svg></g></svg></g><defs></defs></svg><rect width="395.52" height="88.54399460857107" fill="none" stroke="none" visibility="hidden"></rect></g></svg></g></svg>